<mxfile host="Electron" modified="2023-12-26T12:27:47.272Z" agent="Mozilla/5.0 (Windows NT 10.0; Win64; x64) AppleWebKit/537.36 (KHTML, like Gecko) draw.io/22.1.11 Chrome/114.0.5735.289 Electron/25.9.8 Safari/537.36" etag="1ahuA6ZWWfkAJBYCXuRb" version="22.1.11" type="device">
  <diagram name="Страница 1" id="gmrDPHF_lCA5mB66cLRA">
    <mxGraphModel dx="1668" dy="2143" grid="1" gridSize="10" guides="1" tooltips="1" connect="1" arrows="1" fold="1" page="1" pageScale="1" pageWidth="827" pageHeight="1169" math="0" shadow="0">
      <root>
        <mxCell id="0" />
        <mxCell id="1" parent="0" />
        <mxCell id="iM8Raxu4PYDcUKUqE-Pu-3" style="edgeStyle=orthogonalEdgeStyle;rounded=0;orthogonalLoop=1;jettySize=auto;html=1;" parent="1" target="iM8Raxu4PYDcUKUqE-Pu-4" edge="1">
          <mxGeometry relative="1" as="geometry">
            <mxPoint x="400" y="100" as="targetPoint" />
            <mxPoint x="160" y="60" as="sourcePoint" />
          </mxGeometry>
        </mxCell>
        <mxCell id="iM8Raxu4PYDcUKUqE-Pu-5" style="edgeStyle=orthogonalEdgeStyle;rounded=0;orthogonalLoop=1;jettySize=auto;html=1;" parent="1" source="iM8Raxu4PYDcUKUqE-Pu-4" target="iM8Raxu4PYDcUKUqE-Pu-6" edge="1">
          <mxGeometry relative="1" as="geometry">
            <mxPoint x="400" y="160" as="targetPoint" />
          </mxGeometry>
        </mxCell>
        <mxCell id="iM8Raxu4PYDcUKUqE-Pu-4" value="array[]" style="shape=parallelogram;perimeter=parallelogramPerimeter;whiteSpace=wrap;html=1;fixedSize=1;" parent="1" vertex="1">
          <mxGeometry x="100" y="90" width="120" height="40" as="geometry" />
        </mxCell>
        <mxCell id="iM8Raxu4PYDcUKUqE-Pu-7" style="edgeStyle=orthogonalEdgeStyle;rounded=0;orthogonalLoop=1;jettySize=auto;html=1;" parent="1" source="iM8Raxu4PYDcUKUqE-Pu-6" target="iM8Raxu4PYDcUKUqE-Pu-8" edge="1">
          <mxGeometry relative="1" as="geometry">
            <mxPoint x="400" y="250" as="targetPoint" />
          </mxGeometry>
        </mxCell>
        <mxCell id="iM8Raxu4PYDcUKUqE-Pu-6" value="i=0&lt;br&gt;c=0&lt;br&gt;b=0" style="rounded=0;whiteSpace=wrap;html=1;" parent="1" vertex="1">
          <mxGeometry x="100" y="160" width="120" height="60" as="geometry" />
        </mxCell>
        <mxCell id="iM8Raxu4PYDcUKUqE-Pu-10" style="edgeStyle=orthogonalEdgeStyle;rounded=0;orthogonalLoop=1;jettySize=auto;html=1;entryX=0;entryY=0.5;entryDx=0;entryDy=0;" parent="1" source="iM8Raxu4PYDcUKUqE-Pu-8" target="iM8Raxu4PYDcUKUqE-Pu-9" edge="1">
          <mxGeometry relative="1" as="geometry" />
        </mxCell>
        <mxCell id="iM8Raxu4PYDcUKUqE-Pu-23" value="" style="edgeStyle=orthogonalEdgeStyle;rounded=0;orthogonalLoop=1;jettySize=auto;html=1;" parent="1" source="iM8Raxu4PYDcUKUqE-Pu-8" target="iM8Raxu4PYDcUKUqE-Pu-22" edge="1">
          <mxGeometry relative="1" as="geometry" />
        </mxCell>
        <mxCell id="iM8Raxu4PYDcUKUqE-Pu-8" value="i&amp;lt;array.lenght" style="rhombus;whiteSpace=wrap;html=1;" parent="1" vertex="1">
          <mxGeometry x="65" y="340" width="190" height="80" as="geometry" />
        </mxCell>
        <mxCell id="iM8Raxu4PYDcUKUqE-Pu-15" value="" style="edgeStyle=orthogonalEdgeStyle;rounded=0;orthogonalLoop=1;jettySize=auto;html=1;" parent="1" source="iM8Raxu4PYDcUKUqE-Pu-9" target="iM8Raxu4PYDcUKUqE-Pu-13" edge="1">
          <mxGeometry relative="1" as="geometry" />
        </mxCell>
        <mxCell id="iM8Raxu4PYDcUKUqE-Pu-18" value="" style="edgeStyle=orthogonalEdgeStyle;rounded=0;orthogonalLoop=1;jettySize=auto;html=1;" parent="1" source="iM8Raxu4PYDcUKUqE-Pu-9" target="iM8Raxu4PYDcUKUqE-Pu-17" edge="1">
          <mxGeometry relative="1" as="geometry" />
        </mxCell>
        <mxCell id="iM8Raxu4PYDcUKUqE-Pu-9" value="array[i].enght &amp;lt;=3" style="rhombus;whiteSpace=wrap;html=1;" parent="1" vertex="1">
          <mxGeometry x="280" y="340" width="190" height="80" as="geometry" />
        </mxCell>
        <mxCell id="iM8Raxu4PYDcUKUqE-Pu-11" value="DA" style="text;html=1;strokeColor=none;fillColor=none;align=center;verticalAlign=middle;whiteSpace=wrap;rounded=0;" parent="1" vertex="1">
          <mxGeometry x="230" y="330" width="60" height="30" as="geometry" />
        </mxCell>
        <mxCell id="iM8Raxu4PYDcUKUqE-Pu-21" style="edgeStyle=orthogonalEdgeStyle;rounded=0;orthogonalLoop=1;jettySize=auto;html=1;entryX=0.983;entryY=0.383;entryDx=0;entryDy=0;entryPerimeter=0;" parent="1" source="iM8Raxu4PYDcUKUqE-Pu-13" target="iM8Raxu4PYDcUKUqE-Pu-17" edge="1">
          <mxGeometry relative="1" as="geometry">
            <mxPoint x="600" y="260" as="targetPoint" />
            <Array as="points">
              <mxPoint x="600" y="300" />
              <mxPoint x="601" y="300" />
              <mxPoint x="601" y="253" />
            </Array>
          </mxGeometry>
        </mxCell>
        <mxCell id="iM8Raxu4PYDcUKUqE-Pu-13" value="c+=1" style="rhombus;whiteSpace=wrap;html=1;" parent="1" vertex="1">
          <mxGeometry x="510" y="340" width="180" height="80" as="geometry" />
        </mxCell>
        <mxCell id="iM8Raxu4PYDcUKUqE-Pu-16" value="DA" style="text;html=1;strokeColor=none;fillColor=none;align=center;verticalAlign=middle;whiteSpace=wrap;rounded=0;" parent="1" vertex="1">
          <mxGeometry x="450" y="330" width="60" height="30" as="geometry" />
        </mxCell>
        <mxCell id="iM8Raxu4PYDcUKUqE-Pu-20" style="edgeStyle=orthogonalEdgeStyle;rounded=0;orthogonalLoop=1;jettySize=auto;html=1;" parent="1" source="iM8Raxu4PYDcUKUqE-Pu-17" edge="1">
          <mxGeometry relative="1" as="geometry">
            <mxPoint x="160" y="260" as="targetPoint" />
          </mxGeometry>
        </mxCell>
        <mxCell id="iM8Raxu4PYDcUKUqE-Pu-17" value="i +=1" style="rounded=0;whiteSpace=wrap;html=1;" parent="1" vertex="1">
          <mxGeometry x="315" y="230" width="120" height="60" as="geometry" />
        </mxCell>
        <mxCell id="iM8Raxu4PYDcUKUqE-Pu-19" value="NET" style="text;html=1;strokeColor=none;fillColor=none;align=center;verticalAlign=middle;whiteSpace=wrap;rounded=0;" parent="1" vertex="1">
          <mxGeometry x="384" y="300" width="60" height="30" as="geometry" />
        </mxCell>
        <mxCell id="iM8Raxu4PYDcUKUqE-Pu-26" value="" style="edgeStyle=orthogonalEdgeStyle;rounded=0;orthogonalLoop=1;jettySize=auto;html=1;" parent="1" source="iM8Raxu4PYDcUKUqE-Pu-22" target="iM8Raxu4PYDcUKUqE-Pu-25" edge="1">
          <mxGeometry relative="1" as="geometry" />
        </mxCell>
        <mxCell id="iM8Raxu4PYDcUKUqE-Pu-22" value="new array[c]&lt;br&gt;i = 0" style="rounded=0;whiteSpace=wrap;html=1;" parent="1" vertex="1">
          <mxGeometry x="100" y="460" width="120" height="60" as="geometry" />
        </mxCell>
        <mxCell id="iM8Raxu4PYDcUKUqE-Pu-24" value="NET" style="text;html=1;strokeColor=none;fillColor=none;align=center;verticalAlign=middle;whiteSpace=wrap;rounded=0;" parent="1" vertex="1">
          <mxGeometry x="160" y="420" width="60" height="30" as="geometry" />
        </mxCell>
        <mxCell id="iM8Raxu4PYDcUKUqE-Pu-28" value="" style="edgeStyle=orthogonalEdgeStyle;rounded=0;orthogonalLoop=1;jettySize=auto;html=1;" parent="1" source="iM8Raxu4PYDcUKUqE-Pu-25" target="iM8Raxu4PYDcUKUqE-Pu-27" edge="1">
          <mxGeometry relative="1" as="geometry" />
        </mxCell>
        <mxCell id="iM8Raxu4PYDcUKUqE-Pu-35" value="" style="edgeStyle=orthogonalEdgeStyle;rounded=0;orthogonalLoop=1;jettySize=auto;html=1;" parent="1" source="iM8Raxu4PYDcUKUqE-Pu-25" target="iM8Raxu4PYDcUKUqE-Pu-33" edge="1">
          <mxGeometry relative="1" as="geometry" />
        </mxCell>
        <mxCell id="iM8Raxu4PYDcUKUqE-Pu-25" value="i&amp;lt;array.lenght" style="rhombus;whiteSpace=wrap;html=1;" parent="1" vertex="1">
          <mxGeometry x="65" y="610" width="190" height="80" as="geometry" />
        </mxCell>
        <mxCell id="iM8Raxu4PYDcUKUqE-Pu-31" value="" style="edgeStyle=orthogonalEdgeStyle;rounded=0;orthogonalLoop=1;jettySize=auto;html=1;" parent="1" source="iM8Raxu4PYDcUKUqE-Pu-27" edge="1">
          <mxGeometry relative="1" as="geometry">
            <mxPoint x="160" y="830" as="targetPoint" />
          </mxGeometry>
        </mxCell>
        <mxCell id="iM8Raxu4PYDcUKUqE-Pu-27" value="new array[c]&lt;br&gt;" style="shape=parallelogram;perimeter=parallelogramPerimeter;whiteSpace=wrap;html=1;fixedSize=1;" parent="1" vertex="1">
          <mxGeometry x="100" y="720" width="120" height="60" as="geometry" />
        </mxCell>
        <mxCell id="iM8Raxu4PYDcUKUqE-Pu-32" value="NET" style="text;html=1;strokeColor=none;fillColor=none;align=center;verticalAlign=middle;whiteSpace=wrap;rounded=0;" parent="1" vertex="1">
          <mxGeometry x="170" y="680" width="60" height="30" as="geometry" />
        </mxCell>
        <mxCell id="iM8Raxu4PYDcUKUqE-Pu-36" value="" style="edgeStyle=orthogonalEdgeStyle;rounded=0;orthogonalLoop=1;jettySize=auto;html=1;" parent="1" source="iM8Raxu4PYDcUKUqE-Pu-33" edge="1">
          <mxGeometry relative="1" as="geometry">
            <mxPoint x="510" y="650" as="targetPoint" />
          </mxGeometry>
        </mxCell>
        <mxCell id="iM8Raxu4PYDcUKUqE-Pu-38" style="edgeStyle=orthogonalEdgeStyle;rounded=0;orthogonalLoop=1;jettySize=auto;html=1;" parent="1" source="iM8Raxu4PYDcUKUqE-Pu-33" target="iM8Raxu4PYDcUKUqE-Pu-39" edge="1">
          <mxGeometry relative="1" as="geometry">
            <mxPoint x="375" y="570" as="targetPoint" />
          </mxGeometry>
        </mxCell>
        <mxCell id="iM8Raxu4PYDcUKUqE-Pu-33" value="array[i].enght &amp;lt;=3" style="rhombus;whiteSpace=wrap;html=1;" parent="1" vertex="1">
          <mxGeometry x="280" y="610" width="190" height="80" as="geometry" />
        </mxCell>
        <mxCell id="iM8Raxu4PYDcUKUqE-Pu-37" value="new array[b] = array [i]&amp;nbsp;&lt;br&gt;b+=1" style="rounded=0;whiteSpace=wrap;html=1;" parent="1" vertex="1">
          <mxGeometry x="510" y="620" width="160" height="60" as="geometry" />
        </mxCell>
        <mxCell id="iM8Raxu4PYDcUKUqE-Pu-41" style="edgeStyle=orthogonalEdgeStyle;rounded=0;orthogonalLoop=1;jettySize=auto;html=1;" parent="1" source="iM8Raxu4PYDcUKUqE-Pu-39" edge="1">
          <mxGeometry relative="1" as="geometry">
            <mxPoint x="160" y="550" as="targetPoint" />
          </mxGeometry>
        </mxCell>
        <mxCell id="iM8Raxu4PYDcUKUqE-Pu-39" value="i +=1" style="rounded=0;whiteSpace=wrap;html=1;" parent="1" vertex="1">
          <mxGeometry x="315" y="520" width="120" height="60" as="geometry" />
        </mxCell>
        <mxCell id="iM8Raxu4PYDcUKUqE-Pu-42" value="DA" style="text;html=1;strokeColor=none;fillColor=none;align=center;verticalAlign=middle;whiteSpace=wrap;rounded=0;" parent="1" vertex="1">
          <mxGeometry x="240" y="610" width="60" height="30" as="geometry" />
        </mxCell>
        <mxCell id="iM8Raxu4PYDcUKUqE-Pu-43" value="DA" style="text;html=1;strokeColor=none;fillColor=none;align=center;verticalAlign=middle;whiteSpace=wrap;rounded=0;" parent="1" vertex="1">
          <mxGeometry x="450" y="610" width="60" height="30" as="geometry" />
        </mxCell>
        <mxCell id="iM8Raxu4PYDcUKUqE-Pu-44" value="NET" style="text;html=1;strokeColor=none;fillColor=none;align=center;verticalAlign=middle;whiteSpace=wrap;rounded=0;" parent="1" vertex="1">
          <mxGeometry x="384" y="585" width="60" height="30" as="geometry" />
        </mxCell>
        <mxCell id="mUNJ7gOjAYVTXQQRRLFv-1" value="Start" style="ellipse;whiteSpace=wrap;html=1;" vertex="1" parent="1">
          <mxGeometry x="100" y="-20" width="120" height="80" as="geometry" />
        </mxCell>
        <mxCell id="mUNJ7gOjAYVTXQQRRLFv-2" value="End" style="ellipse;whiteSpace=wrap;html=1;" vertex="1" parent="1">
          <mxGeometry x="100" y="830" width="120" height="80" as="geometry" />
        </mxCell>
      </root>
    </mxGraphModel>
  </diagram>
</mxfile>
